<svg width="147" height="147" viewBox="0 0 147 147" fill="none" xmlns="http://www.w3.org/2000/svg">
<g clip-path="url(#clip0)">
<path d="M51.913 77.0001C59.9717 80.5993 72.6255 81.2381 72.6255 81.2381C72.9083 81.2444 73.1851 81.2456 73.4628 81.2471V81.248C73.4752 81.248 73.4875 81.2477 73.4999 81.2477C73.5123 81.2477 73.5253 81.248 73.5377 81.248V81.2471C73.8154 81.2456 74.0937 81.2435 74.375 81.2381C74.375 81.2381 87.0284 80.5993 95.0869 76.9998C95.0869 76.9998 96.2384 76.7294 96.2756 74.0882C96.2756 74.0882 95.8611 62.5156 92.357 57.3127C92.357 57.3127 91.4789 55.9643 88.9914 55.0367C88.9914 55.0367 80.8771 52.5643 80.3304 50.4637C80.3304 50.4637 77.6425 57.4235 73.5005 57.3453C69.3589 57.4235 66.6703 50.464 66.6703 50.464C66.1234 52.5646 58.0097 55.037 58.0097 55.037C55.5403 55.9266 54.6435 57.313 54.6435 57.313C51.1393 62.5156 50.7249 74.0882 50.7249 74.0882C50.7617 76.7294 51.913 77.0001 51.913 77.0001Z" fill="#F8F8F8"/>
<path d="M64.564 42.2051C65.1602 47.2113 69.4627 52.3958 73.3635 52.3958C77.8505 52.3958 82.1078 46.9351 82.7773 42.2054C83.0227 42.0304 83.4474 41.5942 83.5886 40.6084C83.5886 40.6084 84.5407 37.1869 83.2687 37.5525C83.7236 36.2379 85.1857 31.0905 82.3535 27.8963C82.3535 27.8963 81.0329 26.072 77.7898 25.1045C77.6606 25.0155 77.5571 24.9204 77.4213 24.825C77.4213 24.825 77.4946 24.9141 77.5803 25.0523C77.4089 25.0092 77.2181 24.9663 77.0274 24.9201C76.8493 24.7266 76.641 24.5362 76.4258 24.3366C76.4258 24.3366 76.6289 24.5362 76.8559 24.8833C76.7581 24.8585 76.6899 24.825 76.6042 24.8187C76.462 24.5884 76.2788 24.3671 76.0445 24.1398C76.0445 24.1398 76.1429 24.3119 76.2779 24.5881C75.6636 24.1519 74.474 23.1416 74.474 22.0145C74.474 22.0145 73.7149 22.3617 73.2914 22.9973C73.1094 22.7139 73.2666 22.3801 73.2666 22.3801C72.9225 22.5735 72.0278 23.2953 71.745 24.2751L71.4884 23.9279C70.9665 23.3291 70.048 23.7897 70.048 23.7897C70.048 23.7897 65.3126 25.8383 63.9398 30.0859C63.9398 30.0859 63.1475 31.9963 64.2039 37.6198C62.6959 36.9101 63.7246 40.6081 63.7246 40.6081C63.8849 41.6002 64.2939 42.0364 64.564 42.2051Z" fill="#F8F8F8"/>
<path d="M106.056 5.96452V0H96.5231V5.96452H50.4779V0H40.9507V5.96452H21.0484V147H125.951V5.96452H106.056ZM26.5224 141.546V11.4222H40.9513V19.0511H50.4786V11.4222H96.5357V19.0511H106.056V11.4222H120.491L120.491 141.546H26.5224Z" fill="#F8F8F8"/>
<path d="M94.7304 123.13H39.1789V128.658H94.7304V123.13Z" fill="#F8F8F8"/>
<path d="M111.069 90.7531H39.1703V96.256H111.069V90.7531Z" fill="#F8F8F8"/>
<path d="M105.627 101.816H39.1705V107.35H105.627V101.816Z" fill="#F8F8F8"/>
<path d="M100.173 112.565H39.1705V118.063H100.173V112.565Z" fill="#F8F8F8"/>
<path d="M51.913 77.0001C59.9717 80.5993 72.6255 81.2381 72.6255 81.2381C72.9083 81.2444 73.1851 81.2456 73.4628 81.2471V81.248C73.4752 81.248 73.4875 81.2477 73.4999 81.2477C73.5123 81.2477 73.5253 81.248 73.5377 81.248V81.2471C73.8154 81.2456 74.0937 81.2435 74.375 81.2381C74.375 81.2381 87.0284 80.5993 95.0869 76.9998C95.0869 76.9998 96.2384 76.7294 96.2756 74.0882C96.2756 74.0882 95.8611 62.5156 92.357 57.3127C92.357 57.3127 91.4789 55.9643 88.9914 55.0367C88.9914 55.0367 80.8771 52.5643 80.3304 50.4637C80.3304 50.4637 77.6425 57.4235 73.5005 57.3453C69.3589 57.4235 66.6703 50.464 66.6703 50.464C66.1234 52.5646 58.0097 55.037 58.0097 55.037C55.5403 55.9266 54.6435 57.313 54.6435 57.313C51.1393 62.5156 50.7249 74.0882 50.7249 74.0882C50.7617 76.7294 51.913 77.0001 51.913 77.0001Z" fill="#F8F8F8"/>
<path d="M64.564 42.2051C65.1602 47.2113 69.4627 52.3958 73.3635 52.3958C77.8505 52.3958 82.1078 46.9351 82.7773 42.2054C83.0227 42.0304 83.4474 41.5942 83.5886 40.6084C83.5886 40.6084 84.5407 37.1869 83.2687 37.5525C83.7236 36.2379 85.1857 31.0905 82.3535 27.8963C82.3535 27.8963 81.0329 26.072 77.7898 25.1045C77.6606 25.0155 77.5571 24.9204 77.4213 24.825C77.4213 24.825 77.4946 24.9141 77.5803 25.0523C77.4089 25.0092 77.2181 24.9663 77.0274 24.9201C76.8493 24.7266 76.641 24.5362 76.4258 24.3366C76.4258 24.3366 76.6289 24.5362 76.8559 24.8833C76.7581 24.8585 76.6899 24.825 76.6042 24.8187C76.462 24.5884 76.2788 24.3671 76.0445 24.1398C76.0445 24.1398 76.1429 24.3119 76.2779 24.5881C75.6636 24.1519 74.474 23.1416 74.474 22.0145C74.474 22.0145 73.7149 22.3617 73.2914 22.9973C73.1094 22.7139 73.2666 22.3801 73.2666 22.3801C72.9225 22.5735 72.0278 23.2953 71.745 24.2751L71.4884 23.9279C70.9665 23.3291 70.048 23.7897 70.048 23.7897C70.048 23.7897 65.3126 25.8383 63.9398 30.0859C63.9398 30.0859 63.1475 31.9963 64.2039 37.6198C62.6959 36.9101 63.7246 40.6081 63.7246 40.6081C63.8849 41.6002 64.2939 42.0364 64.564 42.2051Z" fill="#F8F8F8"/>
<path d="M106.056 5.96452V0H96.5231V5.96452H50.4779V0H40.9507V5.96452H21.0484V147H125.951V5.96452H106.056ZM26.5224 141.546V11.4222H40.9513V19.0511H50.4786V11.4222H96.5357V19.0511H106.056V11.4222H120.491L120.491 141.546H26.5224Z" fill="#F8F8F8"/>
<path d="M94.7304 123.13H39.1789V128.658H94.7304V123.13Z" fill="#F8F8F8"/>
<path d="M111.069 90.7531H39.1703V96.256H111.069V90.7531Z" fill="#F8F8F8"/>
<path d="M105.627 101.816H39.1705V107.35H105.627V101.816Z" fill="#F8F8F8"/>
<path d="M100.173 112.565H39.1705V118.063H100.173V112.565Z" fill="#F8F8F8"/>
</g>
<defs>
<clipPath id="clip0">
<rect width="147" height="147" fill="white"/>
</clipPath>
</defs>
</svg>
