<svg width="147" height="147" viewBox="0 0 147 147" fill="none" xmlns="http://www.w3.org/2000/svg">
<path d="M125.897 0.859318C125.348 0.309217 124.602 0 123.824 0H23.1757C21.5587 0 20.2474 1.31094 20.2474 2.92823V144.072C20.2474 145.689 21.5587 147 23.1757 147H123.574C125.189 147 126.499 145.692 126.502 144.077L126.753 2.9334C126.754 2.1559 126.446 1.40971 125.897 0.859318ZM120.65 141.144H26.1039V5.85646H120.891L120.65 141.144Z" fill="#F8F8F8"/>
<path d="M116.192 122.407L102.765 108.861C102.798 108.46 102.819 108.055 102.819 107.646C102.819 99.3129 96.0399 92.5339 87.7074 92.5339C79.3749 92.5339 72.596 99.3129 72.596 107.646C72.596 108.05 72.6166 108.45 72.6482 108.847L59.1285 122.401C58.3355 123.196 58.0671 124.374 58.4374 125.435C58.8081 126.495 59.7521 127.25 60.8681 127.378L67.244 128.11L67.9755 134.485C68.1038 135.603 68.8601 136.548 69.9218 136.917C70.2365 137.027 70.5618 137.08 70.8836 137.08C71.6488 137.08 72.3987 136.78 72.9574 136.22L86.4427 122.701C86.8598 122.735 87.281 122.757 87.7071 122.757C88.1286 122.757 88.5446 122.736 88.9572 122.701L102.349 136.213C102.909 136.777 103.661 137.08 104.43 137.08C104.75 137.08 105.074 137.027 105.388 136.918C106.452 136.55 107.21 135.604 107.338 134.485L108.07 128.109L114.446 127.377C115.56 127.249 116.504 126.496 116.875 125.438C117.247 124.381 116.981 123.203 116.192 122.407ZM73.101 127.783L72.7966 125.132C72.6413 123.779 71.5741 122.711 70.2213 122.556L67.5506 122.25L74.6112 115.172C75.9373 117.471 77.8501 119.388 80.1452 120.721L73.101 127.783ZM87.7071 116.9C82.604 116.9 78.4521 112.749 78.4521 107.645C78.4518 102.542 82.6034 98.3901 87.7071 98.3901C92.8105 98.3901 96.9621 102.542 96.9621 107.645C96.9621 112.749 92.8105 116.9 87.7071 116.9ZM105.092 122.556C103.74 122.711 102.672 123.779 102.517 125.131L102.216 127.759L95.2509 120.732C97.5478 119.402 99.4634 117.487 100.793 115.19L107.788 122.247L105.092 122.556Z" fill="#F8F8F8"/>
<path d="M60.3227 101.026H37.7749C36.1579 101.026 34.8466 102.337 34.8466 103.954C34.8466 105.571 36.1579 106.882 37.7749 106.882H60.3227C61.9397 106.882 63.251 105.571 63.251 103.954C63.251 102.337 61.9397 101.026 60.3227 101.026Z" fill="#F8F8F8"/>
<path d="M85.3596 17.5695H61.6404C60.0234 17.5695 58.7121 18.8804 58.7121 20.4977C58.7121 22.115 60.0234 23.4259 61.6404 23.4259H85.3596C86.9766 23.4259 88.2878 22.115 88.2878 20.4977C88.2878 18.8804 86.9766 17.5695 85.3596 17.5695Z" fill="#F8F8F8"/>
<path d="M107.908 29.8683H39.0926C37.4756 29.8683 36.1643 31.1793 36.1643 32.7966C36.1643 34.4139 37.4756 35.7248 39.0926 35.7248H107.907C109.524 35.7248 110.835 34.4139 110.835 32.7966C110.835 31.1793 109.525 29.8683 107.908 29.8683Z" fill="#F8F8F8"/>
<path d="M95.0229 50.0737H64.1296C62.5126 50.0737 61.2014 51.3847 61.2014 53.002C61.2014 54.6192 62.5126 55.9302 64.1296 55.9302H95.0232C96.6402 55.9302 97.9514 54.6192 97.9514 53.002C97.9514 51.3847 96.6399 50.0737 95.0229 50.0737Z" fill="#F8F8F8"/>
<path d="M53.5875 50.0737H51.9768C50.3598 50.0737 49.0486 51.3847 49.0486 53.002C49.0486 54.6192 50.3598 55.9302 51.9768 55.9302H53.5875C55.2045 55.9302 56.5157 54.6192 56.5157 53.002C56.5157 51.3847 55.2045 50.0737 53.5875 50.0737Z" fill="#F8F8F8"/>
<path d="M95.0229 61.4938H64.1296C62.5126 61.4938 61.2014 62.8047 61.2014 64.422C61.2014 66.0393 62.5126 67.3502 64.1296 67.3502H95.0232C96.6402 67.3502 97.9514 66.0393 97.9514 64.422C97.9511 62.8047 96.6399 61.4938 95.0229 61.4938Z" fill="#F8F8F8"/>
<path d="M53.5875 61.4938H51.9768C50.3598 61.4938 49.0486 62.8047 49.0486 64.422C49.0486 66.0393 50.3598 67.3502 51.9768 67.3502H53.5875C55.2045 67.3502 56.5157 66.0393 56.5157 64.422C56.516 62.8047 55.2045 61.4938 53.5875 61.4938Z" fill="#F8F8F8"/>
<path d="M95.0229 73.2069H64.1296C62.5126 73.2069 61.2014 74.5178 61.2014 76.1351C61.2014 77.7524 62.5126 79.0634 64.1296 79.0634H95.0232C96.6402 79.0634 97.9514 77.7524 97.9514 76.1351C97.9511 74.5178 96.6399 73.2069 95.0229 73.2069Z" fill="#F8F8F8"/>
<path d="M53.5875 73.2069H51.9768C50.3598 73.2069 49.0486 74.5178 49.0486 76.1351C49.0486 77.7524 50.3598 79.0634 51.9768 79.0634H53.5875C55.2045 79.0634 56.5157 77.7524 56.5157 76.1351C56.516 74.5178 55.2045 73.2069 53.5875 73.2069Z" fill="#F8F8F8"/>
</svg>
